/* XPM */
static char *f3a847e60faa4720c24f74096789790f8F17qalnAfOTKhYB[] = {
/* columns rows colors chars-per-pixel */
"32 32 111 2 ",
"   c #181818",
".  c #283528",
"X  c #2A382A",
"o  c #2E453C",
"O  c #395239",
"+  c #39543A",
"@  c #3A553C",
"#  c #3D6B3D",
"$  c #6F563D",
"%  c #243562",
"&  c #314E45",
"*  c #345047",
"=  c #37584B",
"-  c #396A52",
";  c #396B52",
":  c #3C6C54",
">  c #355273",
",  c #5A5540",
"<  c #416B56",
"1  c #4D6F59",
"2  c #50635E",
"3  c #44755A",
"4  c #64664B",
"5  c #7F734E",
"6  c #447460",
"7  c #477B69",
"8  c #567B66",
"9  c #41777B",
"0  c #6C7673",
"q  c #873D3D",
"w  c #985A4E",
"e  c #DE7B63",
"r  c #F76363",
"t  c #448766",
"y  c #498661",
"u  c #498762",
"i  c #4A856D",
"p  c #4A8372",
"a  c #4A8473",
"s  c #4D8671",
"d  c #4A8674",
"f  c #4D8E77",
"g  c #4F9A71",
"h  c #61806E",
"j  c #7D8D7D",
"k  c #669877",
"l  c #689A79",
"z  c #4EA067",
"x  c #52A07F",
"c  c #6BB17B",
"v  c #89830E",
"b  c #8B901C",
"n  c #94A939",
"m  c #9CB83E",
"M  c #A4B939",
"N  c #DECE00",
"B  c #EEDE00",
"V  c #C9DF2E",
"C  c #88B152",
"Z  c #888C6B",
"A  c #A58E76",
"S  c #A89077",
"D  c #90A877",
"F  c #9CC546",
"G  c #9AC548",
"H  c #8DC85C",
"J  c #A7D046",
"K  c #ACD646",
"L  c #C9E65A",
"P  c #3152AD",
"I  c #3D77B5",
"U  c #7B7783",
"Y  c #52A180",
"T  c #58B888",
"R  c #59BB8B",
"E  c #5ABD8C",
"W  c #75AE8A",
"Q  c #6FB194",
"!  c #75B693",
"~  c #71BB92",
"^  c #4A9CBD",
"/  c #75CA9E",
"(  c #76CC9F",
")  c #76CDA0",
"_  c #77CDA0",
"`  c #8B8B8B",
"'  c gray56",
"]  c #8B9494",
"[  c #8AA38F",
"{  c #99A79A",
"}  c #9AA89B",
"|  c #9BA89B",
" . c #9CA89C",
".. c #9FAB9F",
"X. c #B5BAB5",
"o. c #C5A08C",
"O. c #9CC9BD",
"+. c #94DEB5",
"@. c #A3C1B8",
"#. c #A4C1B9",
"$. c #BBC3BB",
"%. c #BEC6BE",
"&. c #BECCC5",
"*. c #C4D7D1",
"=. c #DDE1DD",
"-. c #DED6EF",
";. c #EBE7F3",
":. c #EEEAF7",
">. c #FBFBFB",
",. c gray99",
"<. c white",
/* pixels */
"<.<.<.<.<.<.#.Q <.<.<.<.<.<.<.<.<.<.<.#.<.<.<.<.<.<.<.<.<.<.<.<.",
"<.<.<.<.<.<.a +.<.<.<.<.<.<.<.<.<.<.#.) O <.<.<.<.<.<.<.<.<.<.<.",
"<.<.<.<.<.<.a +.#.<.<.<.<.<.<.<.<.} ) y <.<.<.<.<.<.<.<.<.<.<.<.",
"<.<.<.<.<.<.< +.O <.<.<.<.<.<.*.[ ) E <.<.<.<.<.<.<.<.<.<.<.<.<.",
"<.<.<.<.<.<.O E y <.<.<.<.<...~ E R  .<.<.<.<.<.<.<.<.<.<.<.<.<.",
"<.<.<.<.<.<.O E E <.<.<.<. .) f 7 ' <.<.<.<.<.<.<.<.<.<.<.<.<.<.",
"<.<.<.<.<.<.O k k  . . .k x a a 2 <.<.<.<.<.<.<.<.<.<.<.<.<.<.<.",
"<.<.<.<.#.Q +.L L L b ) a a a 0 <.<.<.<.<.<.<.<.<.<.<.<.<.<.<.<.",
"<.<.Q x E z c c ) u ) a < y v u  .<.<.<.<.<.<.<.<.<.<.<.<.<.<.<.",
"<.@.+.+.z x y y Y E E < x E E H E y  .<.<.<.<. . .<.<.<.<.<.<.<.",
"&.+.c z z B # E E E E a a a a C m G E y  .<.<.w y <.<.<.<.<.<.<.",
"1 ( y y D D D D S e E a < < a a a s n E E  . .S E  . . .<.<.<.<.",
"X.` ` <.<.` . % % r a a x y + h 6 a a n E a +.u w y S S <.<.<.<.",
"<.<.<.<.<.<.<.P P r <  .Q +.l =.=.< a a n . +.E E E E E  .<.<.<.",
"<.<.<.<.<.<.<.I > e   <. .) +.[ <.<. .& . k k E O E E E O <.<.<.",
"<.<.<.<.<.<.9 ^ q a  . . .` / +.j <.. +.Q Q . u E a a x x <.<.<.",
"<.<.<.<.<. .9 > Z . O O.E O ; ! W y u a a a < a u < a a a <.<.<.",
"<.<.<.<.<.<.$ $ 8 ) :.U <.a y t g @ E . < a a a     a a a <.<.<.",
"<.<.<.<.<. .< < +.k . -.& E x < 3 R ] <.E a O E   E a a a <.<.<.",
"<.<.<.#.y +.+.. x w y ; & & & a i } U O y < a E . E a & ` <.<.<.",
"<.<.@.E +.+.E Y O E x x a a < o o ;.]  .:.a < E E E . <.<.<.<.<.",
"<.>.E +.+.E E a a a < & & & * 4 %.'  .U & < a z z x . <.<.<.<.<.",
"<.a E +.E E < O O . & & ` ` ,.<.<.<.<.<.O & & x E < E  .<.<.<.<.",
"&.E E +.E E O < a S y } } <.<.<.<.<.<.<. .< < & & & a y <.<.<.<.",
"$.Y E E y u ) ) < y E E r <.<.<.<.<.<. .a a F N a . n x O <.<.<.",
"<.+ Y y k u k +.+.+.k k w } ,.<.=. .y E E K E M & <.< n y  .<.<.",
"<.>.& < w o.S k a k +.+.+.+.X y g E E E E B n & <.<.<.< a O { <.",
"<.<.<.O a < < w o.S k S ( < T E E K K K n a & <.<.<.<.< a < y =.",
"<.<.<.<.w ; i a < < w < i 1 C J V K M & & ` <.<.<.<.<.a < a A , ",
"<.<.<.<.4 Z < : < p p a s +.X & = ` ` <.<.<.<.<.<.<.<.< O E @ <.",
"<.<.<.<.,.` w = Z < < Z * * >.<.<.<.<.<.<.<.<.<.<.<.<.O  .. E &.",
"<.<.,.,.,.,.>.>.` < $ ` >.<.<.<.<.<.<.<.<.<.<.<.<.<.<. .<.<.: X."
};
