/* XPM */
static char *_371469a090f4aa48e371f1d46cec28aPg1Ae12bgkDjN3sj[] = {
/* columns rows colors chars-per-pixel */
"32 32 3 1 ",
"  c #B5FF52",
". c #46A257",
"X c white",
/* pixels */
"                                ",
"                                ",
" .               .              ",
" ..              .              ",
"  .   .          .    .         ",
"     ..              .          ",
"     .              .           ",
"                                ",
"                                ",
"                                ",
"         .               .      ",
"         ..              ..     ",
"          .   .           .   . ",
"             ..              .. ",
"             .               .  ",
"                                ",
"                                ",
"                                ",
" .                .             ",
"  .   .           .  ..         ",
"   . .             ..           ",
"   ..              .            ",
"                                ",
"                                ",
"                                ",
"                                ",
"         .               .      ",
"         ..              ..     ",
"          .   .           .   . ",
"             ..              .. ",
"             .               .  ",
"                                "
};
