/* XPM */
static char *_675a7be64044252948ad7dde22cf9c57SY3PFE5p0ZrCZ5t[] = {
/* columns rows colors chars-per-pixel */
"32 32 217 2 ",
"   c None",
".  c #0F0509",
"X  c #17080D",
"o  c #181519",
"O  c #240B07",
"+  c #3B0401",
"@  c #3B1302",
"#  c #351E08",
"$  c #221D13",
"%  c #2A271A",
"&  c #34271A",
"*  c #3F3F16",
"=  c #02092E",
"-  c #111422",
";  c #1A2131",
":  c #272320",
">  c #2A2926",
",  c #26282B",
"<  c #2D2C2F",
"1  c #373729",
"2  c #222830",
"3  c #2F2F33",
"4  c #27303E",
"5  c #383533",
"6  c #560E00",
"7  c #4A1F02",
"8  c #4C1E0C",
"9  c #620A02",
"0  c #680902",
"q  c #780000",
"w  c #631606",
"e  c #4A240B",
"r  c #41340B",
"t  c #473F1F",
"y  c #6C2512",
"u  c #692F10",
"i  c #7B2F11",
"p  c #6A3310",
"a  c #723F16",
"s  c #7A331F",
"d  c #4E1D27",
"f  c #403E22",
"g  c #56332A",
"h  c #4B3438",
"j  c #6D2E24",
"k  c #6A2F38",
"l  c #3C4139",
"z  c #584200",
"x  c #5E4702",
"c  c #494411",
"v  c #4B4519",
"b  c #57431C",
"n  c #5F5F13",
"m  c #685200",
"M  c #7D441C",
"N  c #675B16",
"B  c #7A5C10",
"V  c #766000",
"C  c #77660D",
"Z  c #6E6715",
"A  c #6D6619",
"S  c #404520",
"D  c #45422A",
"F  c #535131",
"G  c #5D5B30",
"H  c #6D5F24",
"J  c #7C5625",
"K  c #605D33",
"L  c #696227",
"P  c #6F6725",
"I  c #67602B",
"U  c #68632A",
"Y  c #766E27",
"T  c #7D6820",
"R  c #7A6F2F",
"E  c #7C7429",
"W  c #716C30",
"Q  c #7C7130",
"!  c #2F3A4A",
"~  c #413F41",
"^  c #3C484E",
"/  c #494B42",
"(  c #5B5643",
")  c #46545A",
"_  c #56605D",
"`  c #59655C",
"'  c #67624F",
"]  c #626650",
"[  c #6B6C55",
"{  c #5B6D76",
"}  c #6C766B",
"|  c #6E7C79",
" . c #8C0902",
".. c #891706",
"X. c #9E1D06",
"o. c #BD1D06",
"O. c #863110",
"+. c #903915",
"@. c #A13812",
"#. c #B23B18",
"$. c #8A3F38",
"%. c #C43B10",
"&. c #814D00",
"*. c #9A5306",
"=. c #8E4F1A",
"-. c #875C12",
";. c #85501E",
":. c #AE4B1C",
">. c #836F0C",
",. c #917D00",
"<. c #A16504",
"1. c #934320",
"2. c #9C4720",
"3. c #8B5C20",
"4. c #BD5728",
"5. c #B5503B",
"6. c #856927",
"7. c #986625",
"8. c #84782A",
"9. c #897B2B",
"0. c #897F2E",
"q. c #97762F",
"w. c #807931",
"e. c #807932",
"r. c #877F35",
"t. c #8D7B30",
"y. c #AE6923",
"u. c #B96A2D",
"i. c #A87E35",
"p. c #AB713D",
"a. c #CD642F",
"s. c #C76E2B",
"d. c #EA792A",
"f. c #854840",
"g. c #AF5C4F",
"h. c #826147",
"j. c #827E48",
"k. c #9E7545",
"l. c #924064",
"z. c #B1486B",
"x. c #918700",
"c. c #978F00",
"v. c #A69901",
"b. c #8F832F",
"n. c #91852E",
"m. c #99872E",
"M. c #928730",
"N. c #958337",
"B. c #968E32",
"V. c #918B3A",
"C. c #B6853B",
"Z. c #A39035",
"A. c #A69937",
"S. c #A49738",
"D. c #AE9F3A",
"F. c #BE9C3F",
"G. c #B2A239",
"H. c #B6A93F",
"J. c #B9AC3D",
"K. c #C38D38",
"L. c #CC9F3C",
"P. c #DAAC3E",
"I. c #8A8A4C",
"U. c #979147",
"Y. c #9F994B",
"T. c #81805F",
"R. c #89895D",
"E. c #9F9D5E",
"W. c #AD9A41",
"Q. c #ACA348",
"!. c #B3A842",
"~. c #B4A949",
"^. c #B4AC4D",
"/. c #BEAE49",
"(. c #ABA656",
"). c #B2AC55",
"_. c #BBB755",
"`. c #BAB566",
"'. c #B3B271",
"]. c #D49849",
"[. c #CBA64A",
"{. c #C9A04D",
"}. c #C5B542",
"|. c #CDBC46",
" X c #C5BA54",
".X c #EAB756",
"XX c #D7C547",
"oX c #DBC947",
"OX c #D3C348",
"+X c #D8C049",
"@X c #DAC44B",
"#X c #DDCD48",
"$X c #C9C75B",
"%X c #DEC555",
"&X c #D8CE5C",
"*X c #E5CD4D",
"=X c #E3D24D",
"-X c #E0CC55",
";X c #E7D952",
":X c #E2D662",
">X c #E7DD67",
",X c #E7E36B",
"<X c #EFE86F",
"1X c #F6E560",
"2X c #FFF06A",
"3X c #FFFF7D",
"4X c #768480",
"5X c #7C8C8A",
"6X c #859590",
"7X c #9EA581",
"8X c #92A39E",
"9X c #ABB69C",
"0X c #9BABA5",
"qX c #9EB8B3",
"wX c #D8D680",
"eX c #C6CC97",
"rX c #D1DAA7",
/* pixels */
"    [.                                                          ",
"    1X{.                                                        ",
"    @X2X                    *XOX8.                              ",
"      1XH.              +XoXOX                                  ",
"      XXn.          *X|.=X|.                                    ",
"      L.:X X7.i S.=XD.    E   2 >                               ",
"    ;XC.%X!.Z.OX;XD.5 < % : U U ~ !.S.      c                   ",
"  -X1XW.p b %X#X#XN.5 ~ / ~ 3 D F (._.O...+ @.k.                ",
"+X2X}.6.j f.g.F.#XN.. o : ~ ~ I.b.W i.s 2.y X.5.I               ",
"Q V.  d l.z.p.  8.=X    o : : Q.& I.d.$.f.s y o.<.              ",
"      k z.p.n        XK l , : 4 = r..X%.X.s h  .%.>.            ",
"          c s       f 9XeXqX7X`.8X} $X%X/.q.;.3.o.4.]           ",
"            s.9     l } wX'.E.'.rX5XD R.Y.Q._.G p 1.-.  A       ",
"            x.=.t.t 3 , } [ (.4X{ , / [ / - X D ,XR &.V.G.      ",
"            ' h./.( , $ l G j.I.! ~ T.[     I ,X<X6.*.u.*.      ",
"            y.J ,XE.W c   / S o : [ ( <     w.Y.(.q.q  .<.      ",
"            -.p U.1XW     8 p. XW 6.W.A.      1 Y.Z.M O.<.      ",
"            Z N (.;X%   f M :.:.m.2..Xs.w       ).3X_.B V       ",
"              t I.W.$ $ 6 y.,XM 0 i.].#. .O     w.&Xb.C         ",
"                U.f v b h 1.:.3.;.+.a.u.@.u     K R T z         ",
"              ^.2X!.H T.8XqXk y K.:X2.:.K.Z.  V.3X2XA.          ",
"              Q U.N g 4X5X0X( 6 O.a.:X7.O.y O b ~.>XOX      7 8 ",
"              r N # & 5X6X` m.|.,X2.#.P.D.  >.m   r #       ..w ",
"              c.r.e 5 5X5X| W. X>X;X3.0 @   m 7   ,.e O     X.+ ",
"              x r X 1 | | ` >X<X!.Z.E   w.A.9.t A v.# @   9 ..O ",
"                      | | _ U.&XG.    V.D.Y H.#XC $ .     a w   ",
"                      ) 5X{ U.OXU   w.G.      B.OXE       B.    ",
"                      ^ ) ) I.1Xm.  0.w.      I ;XG.    Y E     ",
"                        4 ! , r.J.}.9.        M.OXb.    Z.      ",
"                          2 ! 3 Q.oXJ.A.    n.}.J.P   n.Z       ",
"                            $ 2 4 F D.}.}.#X|.J.R v U           ",
"                                  - ; U S.n.8.                  "
};
