/* XPM */
static char *_53ae5ccd6ee4c81d8eb36ca4a13a8ceKXeDmCBvynULonwW[] = {
/* columns rows colors chars-per-pixel */
"32 32 126 2 ",
"   c #423F37",
".  c #474133",
"X  c #454338",
"o  c #4A473E",
"O  c #514A3A",
"+  c #4D4B45",
"@  c #544D42",
"#  c #524C44",
"$  c #514F48",
"%  c #555146",
"&  c #515149",
"*  c #54514B",
"=  c #56534C",
"-  c #595348",
";  c #5C5749",
":  c #58554E",
">  c #575450",
",  c #585752",
"<  c #595A56",
"1  c #5F5C54",
"2  c #5E5C56",
"3  c #5B5A58",
"4  c #615E54",
"5  c #656155",
"6  c #666159",
"7  c #63645F",
"8  c #67655D",
"9  c #68645B",
"0  c #69665D",
"q  c #6B675D",
"w  c #6D695F",
"e  c #706A5C",
"r  c #666767",
"t  c #6B6861",
"y  c #696966",
"u  c #6B6C66",
"i  c #6F6C66",
"p  c #6B6B68",
"a  c #6D6C68",
"s  c #696B6F",
"d  c #6E6E6C",
"f  c #716D60",
"g  c #766E61",
"h  c #716D64",
"j  c #706E68",
"k  c #787264",
"l  c #75736A",
"z  c #77736A",
"x  c #73726C",
"c  c #73726E",
"v  c #76746C",
"b  c #76766E",
"n  c #7A766C",
"m  c #78756E",
"M  c #717270",
"N  c #757471",
"B  c #787972",
"V  c #7D7970",
"C  c #7E7A71",
"Z  c #7B7B76",
"A  c #7E7D76",
"S  c #7C7C7A",
"D  c #807E78",
"F  c #8B8476",
"G  c #8D8476",
"H  c #87837B",
"J  c #83817D",
"K  c #84837D",
"L  c #84847F",
"P  c #89867C",
"I  c #88867D",
"U  c #8A877D",
"Y  c #958976",
"T  c #988F7E",
"R  c #868781",
"E  c #878786",
"W  c #8E8C82",
"Q  c #8B8A84",
"!  c #888887",
"~  c #84878B",
"^  c #8E8D8A",
"/  c #9E9587",
"(  c #9F9789",
")  c #9E998D",
"_  c #94969B",
"`  c #A0998E",
"'  c #A19F96",
"]  c #A69F95",
"[  c #AAA393",
"{  c #AAA394",
"}  c #A2A298",
"|  c #A3A19A",
" . c #A7A49C",
".. c #AAA69B",
"X. c #AAA79D",
"o. c #AFAA9C",
"O. c #B1AA99",
"+. c #B0A99A",
"@. c #B6AF9E",
"#. c #AAA8A2",
"$. c #AFABA1",
"%. c #A3A4A9",
"&. c #ACADAF",
"*. c #B0ACA1",
"=. c #B2ADA2",
"-. c #B5B1A6",
";. c #B5B2AB",
":. c #B7B6B3",
">. c #B9B9B0",
",. c #BBBBB0",
"<. c #C2B59D",
"1. c #C1BBB0",
"2. c #C2C3C5",
"3. c #CDCBC6",
"4. c #CACAC8",
"5. c #E2E1E0",
"6. c #E9E9E8",
"7. c #EAEBED",
"8. c #ECECEC",
"9. c #ECEDED",
"0. c gray93",
"q. c #EEEEED",
"w. c #F5F5F3",
"e. c gray96",
"r. c #FDFCFB",
"t. c #FEFEFE",
/* pixels */
"t.t.0.0.t.t.0.0.t.t.0.0.t.t.0.0.t.t.0.0.t.t.0.0.t.t.0.0.t.t.0.0.",
"t.t.0.0.t.t.0.0.t.t.0.0.t.t.0.0.t.t.0.0.t.t.0.0.t.t.0.0.t.t.0.0.",
"0.0.t.t.0.0.t.t.0.0.t.t.0.0.t.t.0.0.t.t.0.0.t.t.0.0.t.t.0.0.t.t.",
"0.0.t.t.0.0.t.t.0.0.t.t.0.0.t.t.0.0.t.t.0.0.t.t.0.0.t.t.0.0.t.t.",
"t.t.0.0.t.t.0.0.t.t.0.0.t.t.0.0.t.t.0.0.t.t.0.0.t.t.0.0.t.t.0.0.",
"t.t.0.0.t.t.0.0.t.t.0.0.t.t.0.0.t.t.0.0.t.t.0.0.t.t.0.0.t.t.0.0.",
"7.0.t.t.0.0.t.t.0.0.t.t.0.0.t.t.0.0.t.t.0.0.t.t.0.0.t.t.0.0.t.t.",
"0.0.t.t.0.0.t.t.0.0.t.t.0.0.t.t.0.0.t.t.0.0.t.t.0.0.t.t.0.0.t.t.",
"t.t.0.0.t.t.0.0.t.t.0.0.t.t.0.0.t.t.0.0.t.t.0.0.t.t.0.0.t.t.0.0.",
"t.t.0.0.t.t.0.0.t.t.0.0.t.t.0.0.t.t.0.0.t.t.0.0.t.t.0.0.t.t.0.0.",
"0.0.t.t.0.0.t.t.0.0.t.t.0.0.t.t.0.0.t.t.0.0.t.t.0.0.t.t.0.0.t.t.",
"0.0.t.t.0.0.t.t.0.0.t.t.0.0.t.t.0.0.t.t.0.0.t.t.0.0.t.t.0.0.t.t.",
"t.t.0.0.t.t.0.0.t.t.0.0.t.t.0.0.t.t.0.0.t.t.0.0.t.t.0.0.t.t.0.0.",
"t.t.0.0.t.t.0.0.t.t.0.0.t.t.2.&.&.%._ ~ s r ! 0.t.t.0.0.t.t.0.0.",
"0.0.t.t.0.0.t.t.0.0.t.t.0.6.f 2 c j M N j i b t.0.0.t.t.0.0.t.t.",
"0.0.t.t.0.0.t.t.0.0.t.t.0.Z L N y j S d a 3 o :.0.0.t.t.0.0.t.t.",
"t.t.0.0.t.t.0.0.t.t.0.0.0.5 5 h N S 2 2 < , - X t.t.0.0.t.t.0.0.",
"t.t.0.0.t.t.0.0.t.t.0.6.w U L J U t k 6 * & # @ r.t.0.0.t.t.0.0.",
"0.0.t.t.0.0.t.t.0.0.t.4.I Q z m H H 0 w 5 m = * . 0.t.t.0.0.t.t.",
"0.0.t.t.0.0.t.t.0.0.w.u b ^ L J 0 b h t z c t , z 6.t.t.0.0.t.t.",
"t.t.0.0.t.t.0.0.t.t.3.g Y T ` ) G ] / ` ( ` ) X.=.;.0.0.t.t.0.0.",
"t.t.0.0.t.t.0.0.t.e.e w A P W F A C c L S B y 2 4 f 0.0.t.t.0.0.",
"0.0.t.t.0.0.t.t.8.1.-.<.o.=.o.=...+.+.o.$.X. .} | #.| t.0.0.t.t.",
"0.0.t.t.0.0.t.t.6.x ; O O V 8 t 9 t , : 1 1 # + $   X t.0.0.t.t.",
"t.t.0.0.t.t.0.0./ Y <.<.@.O.[ { o.[ o.$.;.o.$.o.-.>.>.! t.t.8.0.",
"t.t.0.0.t.t.0.0.J l n P Z x x 4 t u 8 % 9 = u 7 J y & r 5.t.0.0.",
"0.0.t.t.0.0.t.t.9.0.t.t.0.0.t.t.0.9.t.t.0.0.t.t.0.0.t.t.0.0.t.t.",
"0.0.t.t.0.0.t.t.9.0.t.t.0.0.t.t.9.9.t.t.0.0.t.t.0.0.t.t.0.0.t.t.",
"t.t.0.0.t.t.0.0.t.t.8.0.t.t.9.9.t.t.9.9.t.t.0.0.t.t.0.0.t.t.0.0.",
"t.t.0.0.t.t.0.0.t.t.0.0.t.t.0.0.t.t.0.9.t.t.0.0.t.t.0.0.t.t.0.0.",
"0.0.t.t.0.0.t.t.9.0.t.t.0.9.t.t.9.9.t.t.0.0.t.t.0.0.t.t.0.0.t.t.",
"0.0.t.t.0.0.t.t.9.0.t.t.0.9.t.t.0.0.t.t.0.0.t.t.0.0.t.t.0.0.t.t."
};
