/* XPM */
static char *eeef3cd813194dd18ae019fd79ff008a4DfunRdlNO14kT2H[] = {
/* columns rows colors chars-per-pixel */
"32 32 5 1 ",
"  c None",
". c #3A3A3A",
"X c #A57B19",
"o c #C5943A",
"O c #F9E170",
/* pixels */
"               .................",
"              ..Oo....XoOX....Oo",
"            ..OooOoOoOoXoOoOoOoX",
"           ..O.oooooOoXoooooOoXo",
"          ..OoO.ooOooooXooOooooX",
"         ..ooOo.oOoooXoooOoooXoo",
"         .OoooOOooOoXoooooOoXooo",
"        .OoOoOO.oooooXoooooooXoo",
"       ..oOoOOO.oooooooooooooooo",
"      .o..oooOo.ooooOoooooooOooo",
"    ....O..oOo.ooooOoooXoooOoooX",
"   ..oO..O.Oo..oooooOoXoooooOoXo",
"  ..oOoOO.OoOoO.ooOooooXooOooooX",
" ..oooOO.OoooOo.oOoooXoooOoooXoo",
" .oOoOOO.oOoooOOooOoXoooooOoXooo",
".oOoOOO..OoOoOO.oooooXoooooooXoo",
"..oooOo..oOoOOO.o.oooooooooooooo",
" ..oOo.o..oooOo..o....o........o",
".O..o...O..oOoOoO.XXOo.oo..XXOo.",
" .OoOoO..O.OoO..oXOXoOo.OoXOXoOo",
".OoooOoOO.O.OoO.XOXoX.Oo.XOXoX.O",
".oOoooOO.OoX.OoXXXOXoX.X.oXOXoX.",
".OoOoOOOX.OoXoXo.XXoXo.X..XXoXo.",
".oOoOOO..X.X.XoXo.XXXXo.X..XXXXo",
" ..oo..oX.X.o.........Xooo.....X",
"..OoO.XXOo.oooXXXOo.oooXXXOo.ooo",
".ooOoXOXoOo.O.XOXoOo.O.XOXoOo.O.",
".oOoXOXoX.Oo.XOXoX.Oo.XOXoX.Oo.X",
".ooXXXOXoX.X.oXOXoX.X.oXOXoX.X.o",
".oXo.XXoXo.X..XXoXo.X..XXoXo.X..",
"..oXo.XXXXo. ..XXXXo. ..XXXXo. .",
" ..o.......   ......   ......   "
};
